<?xml version="1.0" standalone="no"?>
<!DOCTYPE svg PUBLIC "-//W3C//DTD SVG 20010904//EN"
 "http://www.w3.org/TR/2001/REC-SVG-20010904/DTD/svg10.dtd">
<svg version="1.0" xmlns="http://www.w3.org/2000/svg"
 width="864.000000pt" height="864.000000pt" viewBox="0 0 864.000000 864.000000"
 preserveAspectRatio="xMidYMid meet">
<metadata>
Created by potrace 1.14, written by Peter Selinger 2001-2017
</metadata>
<g transform="translate(0.000000,864.000000) scale(0.100000,-0.100000)"
fill="#000000" stroke="none">
<path d="M1800 7897 c-3 -3 -34 -7 -70 -11 -71 -6 -165 -21 -165 -26 0 -1 -9
-3 -20 -5 -73 -10 -243 -62 -335 -102 -68 -29 -255 -125 -271 -139 -8 -8 -20
-14 -26 -14 -6 0 -13 -3 -15 -7 -1 -5 -23 -21 -48 -38 -68 -45 -180 -136 -180
-146 0 -5 -4 -9 -9 -9 -14 0 -143 -132 -216 -221 -44 -53 -125 -169 -125 -179
0 -5 -4 -10 -10 -10 -5 0 -10 -4 -10 -9 0 -5 -17 -38 -38 -72 -41 -69 -132
-262 -132 -280 0 -6 -6 -25 -14 -42 -21 -46 -57 -169 -51 -175 2 -2 0 -12 -5
-22 -9 -17 -15 -44 -26 -110 -3 -19 -7 -42 -9 -50 -19 -73 -27 -451 -11 -560
20 -140 82 -399 104 -435 4 -5 7 -17 9 -25 2 -16 1 -13 74 -168 l54 -114 29
64 c109 238 302 615 334 651 8 9 12 17 9 17 -3 0 19 39 49 88 30 48 58 94 63
102 55 88 237 354 264 384 9 11 17 25 17 32 0 7 3 14 8 16 4 2 45 53 92 113
46 61 86 112 89 115 3 3 35 41 70 85 36 44 81 98 100 120 20 23 68 77 106 120
88 100 383 396 495 497 124 112 291 249 405 334 55 41 107 80 115 88 8 7 26
19 39 26 19 10 21 14 10 21 -13 9 -74 27 -111 34 -10 2 -22 6 -27 9 -5 3 -24
8 -42 11 -34 4 -60 9 -109 20 -59 14 -449 32 -460 22z"/>
<path d="M6527 7894 c-2 -2 -30 -6 -63 -9 -87 -7 -132 -16 -262 -50 -134 -36
-133 -34 -60 -85 80 -56 255 -190 294 -225 6 -5 33 -28 60 -50 27 -22 61 -51
76 -65 15 -14 53 -47 85 -75 63 -55 404 -394 468 -465 57 -64 158 -181 181
-209 10 -13 24 -28 29 -35 10 -11 133 -162 147 -181 4 -5 24 -30 43 -55 47
-60 48 -61 67 -91 9 -14 23 -33 30 -40 17 -18 61 -82 165 -239 46 -69 87 -129
91 -135 14 -19 152 -246 152 -250 0 -2 13 -26 29 -53 70 -119 210 -392 252
-490 8 -19 28 -63 44 -99 l31 -65 46 98 c50 107 70 151 74 172 1 8 9 28 17 45
15 31 62 195 71 247 2 14 5 25 6 25 1 0 3 9 5 20 1 11 6 38 9 60 3 22 9 63 13
90 9 62 9 414 -1 475 -9 64 -24 151 -30 175 -2 11 -9 43 -16 70 -13 62 -74
241 -101 304 -39 87 -74 156 -84 163 -7 5 -7 8 0 8 7 0 7 3 0 8 -5 4 -19 23
-29 42 -22 39 -115 182 -125 190 -3 3 -22 25 -41 50 -118 154 -334 348 -487
436 -26 16 -50 31 -53 34 -6 7 -176 90 -230 113 -171 71 -321 110 -535 137
-61 8 -361 11 -368 4z"/>
<path d="M4307 7024 c-1 -1 -61 -5 -134 -8 -72 -4 -141 -9 -153 -11 -12 -2
-48 -7 -79 -11 -31 -3 -65 -8 -76 -11 -11 -2 -33 -6 -50 -8 -16 -2 -43 -6 -60
-10 -16 -3 -43 -9 -60 -11 -30 -6 -143 -36 -270 -73 -65 -18 -119 -38 -255
-91 -30 -12 -63 -24 -72 -27 -10 -3 -18 -10 -18 -16 0 -6 -3 -7 -6 -4 -4 4
-69 -26 -146 -66 -167 -87 -144 -73 -303 -176 -74 -47 -203 -141 -226 -163 -8
-8 -24 -20 -35 -29 -26 -17 -161 -138 -207 -184 -97 -98 -237 -255 -237 -265
0 -5 -4 -10 -8 -12 -7 -2 -42 -46 -100 -123 -79 -106 -193 -296 -271 -451 -56
-114 -151 -342 -151 -364 0 -6 -4 -18 -9 -28 -11 -18 -53 -157 -56 -182 -1 -8
-5 -22 -8 -30 -15 -36 -55 -235 -72 -360 -2 -14 -4 -25 -5 -25 -2 0 -7 -60
-14 -153 -3 -39 -8 -77 -11 -82 -3 -6 -1 -10 6 -10 7 0 8 -4 2 -12 -18 -25 -3
-433 22 -578 3 -20 7 -52 9 -70 2 -19 6 -42 10 -50 3 -8 8 -28 10 -45 8 -59
25 -133 56 -240 17 -61 33 -117 34 -125 7 -26 85 -234 96 -252 5 -10 10 -25
10 -33 0 -8 4 -15 10 -15 5 0 9 -3 8 -7 -1 -5 9 -30 22 -58 13 -27 24 -52 24
-55 1 -3 7 -14 13 -25 6 -11 26 -49 45 -85 49 -92 106 -187 145 -242 18 -26
33 -52 33 -57 0 -5 3 -11 8 -13 4 -1 38 -45 76 -95 39 -51 73 -93 77 -93 4 0
10 -9 14 -19 7 -23 283 -305 370 -379 152 -129 460 -342 494 -342 5 0 11 -3
13 -7 2 -5 44 -28 93 -53 50 -25 92 -47 95 -50 3 -3 10 -6 15 -7 6 -1 51 -20
100 -41 134 -59 410 -151 465 -157 9 0 20 -4 25 -7 9 -5 46 -13 105 -24 8 -1
40 -7 70 -13 63 -13 95 -17 165 -25 28 -3 66 -8 85 -11 31 -4 278 -18 305 -17
156 4 333 16 398 26 20 3 54 8 75 11 34 5 120 20 167 29 165 33 425 112 555
169 14 6 27 11 30 12 3 0 30 12 60 26 30 14 57 26 60 26 11 2 242 125 250 133
3 3 22 14 43 25 20 11 37 23 37 27 0 5 5 8 11 8 6 0 54 30 106 68 53 37 105
74 117 82 11 8 26 19 32 25 6 5 28 24 49 40 95 76 314 287 380 366 40 48 126
154 141 174 8 11 28 38 44 60 16 22 34 45 40 52 5 7 10 16 10 21 0 5 9 17 20
27 11 10 20 22 20 27 0 5 13 28 28 51 16 23 32 49 36 57 3 8 22 42 41 75 53
90 127 246 175 370 24 61 47 119 51 130 10 24 59 187 64 212 1 10 10 45 19 78
9 33 19 73 21 89 2 15 6 35 9 45 3 9 8 36 11 61 3 25 9 54 12 64 3 11 7 40 9
65 1 25 5 66 8 91 22 180 23 401 1 655 -3 39 -7 77 -10 85 -2 8 -7 38 -11 65
-3 28 -8 57 -9 65 -2 8 -11 51 -20 95 -9 44 -18 87 -20 95 -7 37 -68 243 -82
280 -4 8 -7 17 -8 20 -5 20 -19 60 -30 85 -7 17 -28 66 -46 110 -43 103 -133
280 -190 373 -24 41 -52 88 -63 105 -10 18 -21 34 -25 37 -3 3 -10 12 -16 21
-127 210 -471 570 -710 744 -22 16 -42 31 -45 35 -9 10 -224 147 -285 182 -64
36 -241 124 -315 156 -104 45 -321 122 -386 137 -11 2 -44 11 -74 20 -52 14
-81 21 -140 31 -14 2 -45 8 -70 14 -46 10 -67 14 -156 24 -28 4 -61 9 -75 11
-34 7 -377 23 -382 19z"/>
</g>
</svg>
